<svg width="20" height="17" viewBox="0 0 20 17" fill="none" xmlns="http://www.w3.org/2000/svg">
<path d="M19.5269 5.00834C19.5269 2.24691 17.2803 0 14.5195 0C12.4933 0 10.7455 1.2098 9.95775 2.94411C9.17066 1.2098 7.42249 0 5.39724 0C2.63516 0 0.389221 2.24691 0.389221 5.00834C0.389221 5.59085 0.489098 6.14952 0.673387 6.67017C0.882807 7.26298 1.20016 7.80425 1.60256 8.2711C1.77429 8.47085 1.96051 8.65643 2.16187 8.82686L9.8002 16.414C9.84724 16.461 9.90846 16.4845 9.97032 16.4845C10.0328 16.4845 10.0944 16.461 10.1417 16.414L18.0636 8.54334L18.0629 8.54238C18.5765 8.02785 18.9789 7.40313 19.2312 6.70625C19.4222 6.17594 19.5269 5.60406 19.5269 5.00834Z" fill="#E0DDEB"/>
</svg>
